<svg width="73" height="73" viewBox="0 0 73 73" fill="none" xmlns="http://www.w3.org/2000/svg">
<path d="M27.7555 64.1786L2.12943 38.6286C1.82526 38.3245 1.61032 37.995 1.48459 37.6401C1.35684 37.2852 1.29297 36.905 1.29297 36.4995C1.29297 36.0939 1.35684 35.7137 1.48459 35.3589C1.61032 35.004 1.82526 34.6745 2.12943 34.3703L27.7555 8.74427C28.4652 8.03455 29.3523 7.67969 30.4169 7.67969C31.4815 7.67969 32.394 8.0599 33.1544 8.82031C33.9148 9.58073 34.2951 10.4679 34.2951 11.4818C34.2951 12.4957 33.9148 13.3828 33.1544 14.1432L10.7982 36.4995L33.1544 58.8557C33.8641 59.5655 34.219 60.4394 34.219 61.4776C34.219 62.5179 33.8388 63.4182 33.0784 64.1786C32.318 64.9391 31.4308 65.3193 30.4169 65.3193C29.403 65.3193 28.5159 64.9391 27.7555 64.1786V64.1786Z" fill="white"/>
</svg>
