<svg width="37" height="37" viewBox="0 0 37 37" fill="none" xmlns="http://www.w3.org/2000/svg">
<path d="M5.78125 15.3203V32.375C5.78125 32.6817 5.90307 32.9758 6.11991 33.1926C6.33675 33.4094 6.63084 33.5312 6.9375 33.5312H13.875V23.7031C13.875 23.2431 14.0577 22.802 14.383 22.4767C14.7082 22.1515 15.1494 21.9688 15.6094 21.9688H21.3906C21.8506 21.9688 22.2918 22.1515 22.617 22.4767C22.9423 22.802 23.125 23.2431 23.125 23.7031V33.5312H30.0625C30.3692 33.5312 30.6633 33.4094 30.8801 33.1926C31.0969 32.9758 31.2188 32.6817 31.2188 32.375V15.3203" stroke="white" stroke-width="1.5" stroke-linecap="round" stroke-linejoin="round"/>
<path d="M34.6875 18.4997L19.287 3.75753C18.9256 3.37596 18.0809 3.37163 17.713 3.75753L2.3125 18.4997M28.9062 12.9353V4.62471H25.4375V9.61104" stroke="white" stroke-width="1.5" stroke-linecap="round" stroke-linejoin="round"/>
</svg>
